<svg xmlns="http://www.w3.org/2000/svg" viewBox="0 0 11.76 11.76"><defs><style>.cls-1{fill:#fff;}.cls-2{fill:#15498d;}.cls-3{fill:#c58e43;}</style></defs><title>Favicon</title><g id="Layer_2" data-name="Layer 2"><g id="Layer_1-2" data-name="Layer 1"><circle class="cls-1" cx="5.88" cy="5.88" r="5.88"/><path class="cls-2" d="M8.7,2.29,7.54,3.68,7.29,4,7.23,4a.61.61,0,0,1,.05.18V9.06a.63.63,0,0,1-.57.54h0V10a.26.26,0,0,1-.26.26h-.6a.26.26,0,0,1-.26-.26V9.6H4.33V10a.25.25,0,0,1-.25.25H3.46a.28.28,0,0,1-.28-.28V9.6A.63.63,0,0,1,2.55,9V8.63a.72.72,0,0,1,.21-.51l.41-.4L4.33,6.58,4.92,6l.63-.61.66-.65.46-.45.44-.43.18-.18h0Z"/><polygon class="cls-2" points="9.4 1.58 8.89 2.74 8.96 2.02 8.13 2.09 9.4 1.58"/><path class="cls-3" d="M7.29,3.23l-.62.41h0l-.06,0H6.17a1.25,1.25,0,0,0-2.5,0h-.5a.63.63,0,0,0-.63.63V7.07a.07.07,0,0,0,.11.05l.52-.41,1.16-.92.59-.47.52-.41h0l.11-.09.37-.3.13-.11.62-.49.24-.19.06,0,.32-.26L8.7,2.29ZM4,3.68a.9.9,0,0,1,1.8,0Z"/></g></g></svg>